<svg width="40" height="40" viewBox="0 0 40 40" fill="none" xmlns="http://www.w3.org/2000/svg">
<rect width="40" height="40" rx="20" fill="#F2F2F2"/>
<g clip-path="url(#clip0_1_198)">
<path fill-rule="evenodd" clip-rule="evenodd" d="M29.3273 15.3859C29.2307 15.1524 29.0028 15.0001 28.75 15H26.3727C25.6966 13.8498 24.467 13.1382 23.1328 13.125C22.1456 13.1121 21.195 13.498 20.4961 14.1953C19.7768 14.9012 19.3726 15.8673 19.375 16.875V17.3508C16.2297 16.5211 13.657 13.9625 13.6297 13.9352C13.4585 13.7624 13.2027 13.7047 12.9739 13.7872C12.7451 13.8696 12.5849 14.0773 12.5633 14.3195C12.2266 18.0531 13.3109 20.5516 14.282 21.9898C14.7555 22.7009 15.3315 23.338 15.9914 23.8805C14.8016 25.25 12.9281 25.9695 12.9078 25.9773C12.7291 26.0443 12.5908 26.1891 12.5322 26.3707C12.4736 26.5523 12.5012 26.7506 12.607 26.9094C12.6656 26.9969 12.9 27.3039 13.4727 27.5906C14.1805 27.9453 15.1156 28.125 16.25 28.125C21.7711 28.125 26.3844 23.8734 26.8555 18.4031L29.1922 16.0672C29.3709 15.8883 29.4242 15.6195 29.3273 15.3859ZM25.8117 17.6836C25.7046 17.791 25.6401 17.9337 25.6305 18.0852C25.3125 23.0141 21.1938 26.875 16.25 26.875C15.425 26.875 14.8438 26.7656 14.4359 26.6344C15.3352 26.1461 16.5891 25.3063 17.3953 24.0969C17.491 23.9531 17.5229 23.7762 17.4835 23.6081C17.4442 23.44 17.337 23.2957 17.1875 23.2094C17.1508 23.1883 13.757 21.1516 13.75 15.7094C15 16.725 17.2852 18.3008 19.8961 18.7398C20.0772 18.7704 20.2626 18.7197 20.403 18.6013C20.5434 18.4829 20.6246 18.3087 20.625 18.125V16.875C20.6236 16.2015 20.894 15.5558 21.375 15.0844C21.8361 14.6224 22.4645 14.3665 23.1172 14.375C24.1062 14.3875 25.0305 14.9906 25.4172 15.8758C25.5168 16.1032 25.7416 16.2501 25.9898 16.25H27.2398L25.8117 17.6836Z" fill="#141414"/>
</g>
<defs>
<clipPath id="clip0_1_198">
<rect width="20" height="20" fill="white" transform="translate(10 10)"/>
</clipPath>
</defs>
</svg>
